<svg width="25" height="24" viewBox="0 0 25 24" fill="none" xmlns="http://www.w3.org/2000/svg">
<path d="M8.625 10C8.22718 10 7.84564 9.84196 7.56434 9.56066C7.28304 9.27936 7.125 8.89782 7.125 8.5C7.125 7.04131 7.70446 5.64236 8.73591 4.61091C9.76736 3.57946 11.1663 3 12.625 3C14.0837 3 15.4826 3.57946 16.5141 4.61091C17.5455 5.64236 18.125 7.04131 18.125 8.5V19C18.125 19.5304 17.9143 20.0391 17.5392 20.4142C17.1641 20.7893 16.6554 21 16.125 21H9.125C8.59457 21 8.08586 20.7893 7.71079 20.4142C7.33571 20.0391 7.125 19.5304 7.125 19V17C7.125 15.62 7.835 14.556 9.005 13.825L13.429 11.06C14.484 10.4 15.125 9.744 15.125 8.5C15.125 7.83696 14.8616 7.20107 14.3928 6.73223C13.9239 6.26339 13.288 6 12.625 6C11.962 6 11.3261 6.26339 10.8572 6.73223C10.3884 7.20107 10.125 7.83696 10.125 8.5C10.125 8.89782 9.96696 9.27936 9.68566 9.56066C9.40436 9.84196 9.02282 10 8.625 10Z" stroke="#487EB0" stroke-width="2" stroke-linecap="round" stroke-linejoin="round"/>
<path opacity="0.12" d="M8.625 10C8.22718 10 7.84564 9.84196 7.56434 9.56066C7.28304 9.27936 7.125 8.89782 7.125 8.5C7.125 7.04131 7.70446 5.64236 8.73591 4.61091C9.76736 3.57946 11.1663 3 12.625 3C14.0837 3 15.4826 3.57946 16.5141 4.61091C17.5455 5.64236 18.125 7.04131 18.125 8.5V19C18.125 19.5304 17.9143 20.0391 17.5392 20.4142C17.1641 20.7893 16.6554 21 16.125 21H9.125C8.59457 21 8.08586 20.7893 7.71079 20.4142C7.33571 20.0391 7.125 19.5304 7.125 19V17C7.125 15.62 7.835 14.556 9.005 13.825L13.429 11.06C14.484 10.4 15.125 9.744 15.125 8.5C15.125 7.83696 14.8616 7.20107 14.3928 6.73223C13.9239 6.26339 13.288 6 12.625 6C11.962 6 11.3261 6.26339 10.8572 6.73223C10.3884 7.20107 10.125 7.83696 10.125 8.5C10.125 8.89782 9.96696 9.27936 9.68566 9.56066C9.40436 9.84196 9.02282 10 8.625 10Z" fill="#487EB0"/>
</svg>
